<?xml version="1.0" encoding="UTF-8"?>
<svg id="Layer_1" data-name="Layer 1" xmlns="http://www.w3.org/2000/svg" viewBox="0 0 500 69.32">
  <defs>
    <style>
      .cls-1 {
        fill: #cb3340;
      }

      .cls-1, .cls-2 {
        stroke-width: 0px;
      }

      .cls-2 {
        fill: #006375;
      }
    </style>
  </defs>
  <path class="cls-2" d="M150.18,65.62c0,1.68-1.36,3.04-3.04,3.04h-33.26c-1.7,0-3.07-1.38-3.07-3.07V29.29c0-1.68,1.36-3.04,3.04-3.04.89,0,1.69.38,2.25.99l33.29,36.33c.49.54.79,1.26.79,2.04Z"/>
  <path class="cls-1" d="M63.41,3.13v29.99c0,.77-.29,1.51-.81,2.08l-29.89,32.51c-.58.63-1.4.99-2.26.99H3.08c-2.67,0-4.07-3.18-2.26-5.15L58.08,1.06c1.89-2.07,5.34-.73,5.34,2.07Z"/>
  <path class="cls-1" d="M104.74,3.08v62.55c0,1.7-1.38,3.07-3.07,3.07h-36.21c-1.7,0-3.07-1.38-3.07-3.07v-23.1c0-.77.29-1.51.81-2.08L99.41,1c1.89-2.06,5.33-.72,5.33,2.08Z"/>
  <path class="cls-1" d="M166.09,68.71V26.97h6.84l13.01,25.77,12.95-25.77h6.78v41.74h-4.96v-33.03c0-.67,0-1.27.06-1.94-.3.67-.67,1.33-1.03,2l-11.25,22.38h-5.2l-11.31-22.51-.97-1.88c.06.67.06,1.33.06,2v32.97h-4.96Z"/>
  <path class="cls-1" d="M211.07,60.73c0-4.9,3.45-7.68,10.77-8.71l4.66-.67c3.39-.48,4.48-1.33,4.48-3.39,0-3.09-2.66-5.08-6.84-5.08-3.39,0-6.47,1.27-9.01,3.75l-2.96-3.15c3.09-3.21,7.26-4.84,12.34-4.84,7.02,0,11.19,3.63,11.19,9.62v13.43c0,3.09.48,4.78,2.06,7.02h-5.14c-1.09-1.45-1.45-2.54-1.57-4.72-2.24,3.45-5.75,5.32-9.92,5.32-6.47,0-10.04-3.15-10.04-8.59ZM230.98,56.49v-2.72c-.91.67-2,1.09-3.75,1.33l-4.6.67c-4.6.67-6.66,2.06-6.66,4.78,0,2.96,2,4.6,5.81,4.6,5.32,0,9.2-3.63,9.2-8.65Z"/>
  <path class="cls-1" d="M242.88,30.84c0-1.88,1.39-3.27,3.27-3.27s3.27,1.39,3.27,3.27-1.39,3.33-3.27,3.33-3.27-1.45-3.27-3.33ZM243.67,68.71v-29.46h4.96v29.46h-4.96Z"/>
  <path class="cls-1" d="M256.27,68.71v-29.46h4.9v4.24c2.24-3.21,5.57-4.84,9.86-4.84,7.2,0,11.37,4.54,11.37,12.46v17.61h-4.96v-17.18c0-5.63-2.54-8.59-7.38-8.59-5.26,0-8.83,3.51-8.83,8.71v17.06h-4.96Z"/>
  <path class="cls-1" d="M315.12,54.92h-23.11c.36,6.11,4.54,10.16,10.59,10.16,3.45,0,6.17-1.03,8.53-3.39l2.72,3.27c-2.84,2.84-6.78,4.36-11.31,4.36-9.08,0-15.55-6.35-15.55-15.37s6.29-15.31,14.52-15.31,13.67,5.93,13.67,14.52c0,.79,0,1.27-.06,1.75ZM310.28,51.11c-.54-5.08-3.87-8.29-8.83-8.29s-8.29,3.39-9.26,8.29h18.09Z"/>
  <path class="cls-2" d="M347.88,26.97h9.01v41.74h-9.01v-17.12h-18.63v17.12h-9.01V26.97h9.01v16.4h18.63v-16.4Z"/>
  <path class="cls-2" d="M391.65,55.59h-21.54c.79,4.54,3.81,7.02,8.41,7.02,3.21,0,6.17-1.09,8.53-3.27l3.81,5.44c-3.27,2.96-7.74,4.54-12.83,4.54-10.22,0-16.82-6.17-16.82-15.67,0-8.95,6.29-15.61,15.67-15.61s14.82,5.99,14.82,15.19c0,1.09,0,1.69-.06,2.36ZM383.12,50.32c-.24-3.63-2.54-5.87-6.17-5.87s-5.87,2.24-6.72,5.87h12.89Z"/>
  <path class="cls-2" d="M394.85,60.79c0-5.26,3.45-7.8,10.59-9.07l4.9-.91c2.72-.48,3.69-1.03,3.69-2.66,0-2.06-1.94-3.39-5.38-3.39-3.21,0-6.66,1.39-9.08,3.87l-3.99-5.45c3.39-3.39,8.17-5.14,13.55-5.14,8.89,0,13.49,4.11,13.49,11.62v10.89c0,3.75.42,5.69,1.88,8.17h-8.41c-.97-1.51-1.27-2.54-1.39-4.72-1.94,3.39-5.45,5.26-9.92,5.26-6.05,0-9.92-3.33-9.92-8.47ZM413.97,56.98v-2.18c-.85.61-1.57.85-3.51,1.27l-2.9.48c-2.96.48-4.3,1.45-4.3,3.39,0,2.18,1.51,3.21,4.23,3.21,3.75,0,6.47-2.54,6.47-6.17Z"/>
  <path class="cls-2" d="M429.7,68.71V26.97h8.77v41.74h-8.77Z"/>
  <path class="cls-2" d="M447.49,59.22v-13.67h-4.42v-6.9h2.36c1.57,0,2.06-.61,2.06-2.36v-5.08h8.77v5.02c0,1.27-.18,1.88-.67,2.42h9.74v6.9h-9.08v12.34c0,2.6,1.15,3.87,3.45,3.87,1.63,0,2.9-.48,4.23-1.63l2.54,6.41c-2.24,1.88-5.08,2.78-8.41,2.78-6.9,0-10.59-3.57-10.59-10.1Z"/>
  <path class="cls-2" d="M470.84,68.71V26.97h8.77v15.91c2-3.09,5.02-4.84,9.01-4.84,6.78,0,11.37,4.78,11.37,12.46v18.21h-8.71v-17.06c0-4.3-2.24-6.23-5.57-6.23-3.69,0-6.11,2.48-6.11,6.29v17h-8.77Z"/>
</svg>